<svg width="430" height="430" viewBox="0 0 430 430" fill="none"


 xmlns="http://www.w3.org/2000/svg">
<path d="M133.2 172.799L153.6 224.499L163.2 248.699" stroke="#121331" stroke-width="12" stroke-miterlimit="10" stroke-linecap="round" stroke-linejoin="round"/>
<path d="M191.6 320.7L183.6 300.5" stroke="#121331" stroke-width="12" stroke-miterlimit="10" stroke-linecap="round" stroke-linejoin="round"/>
<path d="M180.7 219.8L154.3 223.3L153.6 224.5L134.3 259.7L100.8 320.7H170.5H191.6L289 205.4L223.9 214" stroke="#121331" stroke-width="12" stroke-miterlimit="10" stroke-linecap="round" stroke-linejoin="round"/>
<path d="M275.8 77.4996L284.5 91.3996C286.2 94.1996 289.9 94.9996 292.7 93.2996L315.9 78.7996C325.2 72.9996 328.1 60.6996 322.3 51.3996L321 49.2996C315.2 39.9996 302.9 37.0996 293.6 42.8996L282.2 49.9996C272.9 55.8996 270 68.1996 275.8 77.4996Z" stroke="#121331" stroke-width="12" stroke-miterlimit="10" stroke-linecap="round" stroke-linejoin="round"/>
<path d="M100.7 390.599C139.194 390.599 170.4 359.393 170.4 320.899C170.4 282.405 139.194 251.199 100.7 251.199C62.2057 251.199 31 282.405 31 320.899C31 359.393 62.2057 390.599 100.7 390.599Z" stroke="#121331" stroke-width="12" stroke-miterlimit="10" stroke-linecap="round" stroke-linejoin="round"/>
<path d="M57.2002 320.9C57.2002 345 76.7002 364.5 100.8 364.5" stroke="#121331" stroke-width="12" stroke-miterlimit="10" stroke-linecap="round" stroke-linejoin="round"/>
<path d="M286.2 320.9C286.2 345 305.7 364.5 329.8 364.5" stroke="#121331" stroke-width="12" stroke-miterlimit="10" stroke-linecap="round" stroke-linejoin="round"/>
<path d="M329.7 390.599C368.194 390.599 399.4 359.393 399.4 320.899C399.4 282.405 368.194 251.199 329.7 251.199C291.206 251.199 260 282.405 260 320.899C260 359.393 291.206 390.599 329.7 390.599Z" stroke="#121331" stroke-width="12" stroke-miterlimit="10" stroke-linecap="round" stroke-linejoin="round"/>
<path d="M310 187.6C314.3 187.6 317.3 187.6 317.3 187.6C326 198 316.5 211.6 316.5 211.6" stroke="#121331" stroke-width="12" stroke-miterlimit="10" stroke-linecap="round" stroke-linejoin="round"/>
<path d="M286.3 197.799L289 205.399L306.5 255.099L329.7 320.899" stroke="#121331" stroke-width="12" stroke-miterlimit="10" stroke-linecap="round" stroke-linejoin="round"/>
<path d="M147.9 172.799H109.2" stroke="#121331" stroke-width="12" stroke-miterlimit="10" stroke-linecap="round" stroke-linejoin="round"/>
<path d="M189.9 161.8L217.9 200.6C225.5 208.1 226 220.2 219 228.2L190 273C190 273 200.3 298.8 188 304.2L149.5 271.1L183 216L149 167C148 164.9 137.8 143.9 148.8 124.9C153.3 117.2 159.5 112.8 163.5 110.5" stroke="#121331" stroke-width="12" stroke-miterlimit="10" stroke-linecap="round" stroke-linejoin="round"/>
<path d="M265.2 97.2997C264.7 95.4997 264 93.6997 263.1 91.9997C258.3 82.5997 249.1 76.9997 239.2 76.2997C238.9 76.2997 232.6 75.6997 224.3 79.3997L163.6 110.4L189.9 161.7L190 161.6L244.3 133.8" stroke="#08A88A" stroke-width="12" stroke-miterlimit="10" stroke-linecap="round" stroke-linejoin="round"/>
<path d="M265.2 97.2988L276.2 142.999L310.1 187.599C310.1 187.599 298.1 206.499 280 194.799L250 155.199L234.8 99.3988" stroke="#08A88A" stroke-width="12" stroke-miterlimit="10" stroke-linecap="round" stroke-linejoin="round"/>
</svg>
