<svg width="430" height="430" viewBox="0 0 430 430" fill="none" xmlns="http://www.w3.org/2000/svg">
<path d="M273.6 110.301L231.6 168.101" stroke="#121331" stroke-width="12" stroke-miterlimit="10" stroke-linecap="round" stroke-linejoin="round"/>
<path d="M197.5 168.1L156.1 111.1" stroke="#121331" stroke-width="12" stroke-miterlimit="10" stroke-linecap="round" stroke-linejoin="round"/>
<path d="M187 200.5C186.1 197.7 185.6 194.7 185.6 191.5C185.6 181.8 190.3 173.3 197.6 168M81.4 201.7C81.1 198.3 81 194.9 81 191.5C81 157.4 93.8 126.3 114.8 102.7M163.4 68.1004C179.2 61.6004 196.4 57.9004 214.6 57.9004C233.2 57.9004 251 61.7004 267.1 68.6004M315.4 103.9C335.8 127.4 348.1 158 348.1 191.5C348.1 194.9 348 198.3 347.7 201.7M327.7 262.6C313.3 285.4 292.3 303.6 267.2 314.3C258.5 318.1 249.3 320.9 239.7 322.7M210 325C211.5 325 213.1 325.1 214.6 325.1C216.1 325.1 217.7 325.1 219.2 325M101.5 262.6C115.9 285.4 137 303.6 162 314.3C170.7 318 179.9 320.9 189.4 322.7M214.6 220.6C210.6 220.6 206.7 219.8 203.2 218.3C195.5 215 189.5 208.6 186.9 200.5C186 197.7 185.5 194.7 185.5 191.5C185.5 181.8 190.2 173.3 197.5 168C202.3 164.5 208.2 162.5 214.6 162.5C221 162.5 226.9 164.5 231.7 168C239 173.3 243.7 181.8 243.7 191.5C243.7 194.6 243.2 197.7 242.3 200.5C239.7 208.5 233.8 215 226.1 218.2C222.5 219.7 218.6 220.6 214.6 220.6Z" stroke="#121331" stroke-width="12" stroke-miterlimit="10" stroke-linecap="round" stroke-linejoin="round"/>
<path d="M226 218.199L267.2 314.299L294.7 378.199" stroke="#08A88A" stroke-width="12" stroke-miterlimit="10" stroke-linecap="round" stroke-linejoin="round"/>
<path d="M203.2 218.301L162 314.301L134.5 378.301" stroke="#08A88A" stroke-width="12" stroke-miterlimit="10" stroke-linecap="round" stroke-linejoin="round"/>
<path d="M348 378.301H81.2" stroke="#121331" stroke-width="12" stroke-miterlimit="10" stroke-linecap="round" stroke-linejoin="round"/>
<path d="M214.6 293.2V220.6" stroke="#121331" stroke-width="12" stroke-miterlimit="10" stroke-linecap="round" stroke-linejoin="round"/>
<path d="M319 225.5L242.2 200.5" stroke="#121331" stroke-width="12" stroke-miterlimit="10" stroke-linecap="round" stroke-linejoin="round"/>
<path d="M187 200.5L110.2 225.4" stroke="#121331" stroke-width="12" stroke-miterlimit="10" stroke-linecap="round" stroke-linejoin="round"/>
<path d="M197.5 168.1C202.3 164.6 208.2 162.5 214.6 162.5C221 162.5 226.9 164.6 231.7 168.1C239 173.4 243.7 181.9 243.7 191.6C243.7 194.7 243.2 197.7 242.3 200.6C239.7 208.6 233.8 215 226.1 218.3C222.6 219.8 218.7 220.6 214.7 220.6C210.7 220.6 206.8 219.8 203.3 218.3C195.6 215 189.6 208.6 187 200.5" stroke="#121331" stroke-width="12" stroke-miterlimit="10" stroke-linecap="round" stroke-linejoin="round"/>
<path d="M145.9 114.7H130.4C122 114.7 115 108.2 114.4 99.8L112.6 73.8C111.7 61.5 121.4 51 133.8 51H142.6C154.9 51 164.7 61.5 163.8 73.8L162 99.8C161.4 108.2 154.4 114.7 145.9 114.7Z" stroke="#08A88A" stroke-width="12" stroke-miterlimit="10" stroke-linecap="round" stroke-linejoin="round"/>
<path d="M163.1 82.8008H113.2" stroke="#08A88A" stroke-width="12" stroke-miterlimit="10" stroke-linecap="round" stroke-linejoin="round"/>
<path d="M300.3 114.7H284.7C276.3 114.7 269.3 108.2 268.7 99.8L266.9 73.8C266 61.5 275.8 51 288.1 51H296.9C309.2 51 319 61.5 318.1 73.8L316.3 99.8C315.7 108.2 308.7 114.7 300.3 114.7Z" stroke="#08A88A" stroke-width="12" stroke-miterlimit="10" stroke-linecap="round" stroke-linejoin="round"/>
<path d="M317.5 82.8008H267.5" stroke="#08A88A" stroke-width="12" stroke-miterlimit="10" stroke-linecap="round" stroke-linejoin="round"/>
<path d="M222.4 356.899H206.8C198.4 356.899 191.4 350.399 190.8 341.999L189 315.999C188.1 303.699 197.9 293.199 210.2 293.199H219C231.3 293.199 241.1 303.699 240.2 315.999L238.4 341.999C237.8 350.299 230.8 356.899 222.4 356.899Z" stroke="#08A88A" stroke-width="12" stroke-miterlimit="10" stroke-linecap="round" stroke-linejoin="round"/>
<path d="M239.6 325H189.6" stroke="#08A88A" stroke-width="12" stroke-miterlimit="10" stroke-linecap="round" stroke-linejoin="round"/>
<path d="M352.3 265.399H336.7C328.3 265.399 321.3 258.899 320.7 250.499L318.9 224.499C318 212.199 327.8 201.699 340.1 201.699H348.9C361.2 201.699 371 212.199 370.1 224.499L368.3 250.499C367.8 258.899 360.8 265.399 352.3 265.399Z" stroke="#08A88A" stroke-width="12" stroke-miterlimit="10" stroke-linecap="round" stroke-linejoin="round"/>
<path d="M369.5 233.6H319.6" stroke="#08A88A" stroke-width="12" stroke-miterlimit="10" stroke-linecap="round" stroke-linejoin="round"/>
<path d="M92.5 265.399H76.9C68.5 265.399 61.5 258.899 60.9 250.499L59.1 224.499C58.2 212.199 68 201.699 80.3 201.699H89.1C101.4 201.699 111.2 212.199 110.3 224.499L108.5 250.499C107.9 258.899 100.9 265.399 92.5 265.399Z" stroke="#08A88A" stroke-width="12" stroke-miterlimit="10" stroke-linecap="round" stroke-linejoin="round"/>
<path d="M109.7 233.6H59.7" stroke="#08A88A" stroke-width="12" stroke-miterlimit="10" stroke-linecap="round" stroke-linejoin="round"/>
</svg>
