<svg width="430" height="430" viewBox="0 0 430 430" fill="none" xmlns="http://www.w3.org/2000/svg">
<path d="M32 150.5C40.8 144.6 51.4 141.2 62.8 141.2C86.7 141.2 107.1 156.4 114.8 177.6C119.2 175.6 124.1 174.4 129.2 174.4C138.6 174.4 147.2 178.2 153.4 184.4C153.4 184.1 153.4 183.8 153.4 183.5C153.4 160.5 172 141.9 195 141.9C216.1 141.9 233.4 157.5 236.2 177.8C247.9 166.8 263.7 160 281.1 160C292.5 160 303.2 162.9 312.5 168" stroke="#08A88A" stroke-width="12" stroke-miterlimit="10" stroke-linecap="round" stroke-linejoin="round"/>
<path d="M355.5 68C379.3 68 398.6 87.3 398.6 111.1V254C398.6 277.8 379.3 297.1 355.5 297.1C331.7 297.1 312.4 277.8 312.4 254V111.1C312.4 87.3 331.7 68 355.5 68Z" stroke="#08A88A" stroke-width="12" stroke-miterlimit="10" stroke-linecap="round" stroke-linejoin="round"/>
<path d="M355.4 361.6V260.2L338 242.9" stroke="#121331" stroke-width="12" stroke-miterlimit="10" stroke-linecap="round" stroke-linejoin="round"/>
<path d="M341.199 361.6H367.099" stroke="#121331" stroke-width="12" stroke-miterlimit="10" stroke-linecap="round" stroke-linejoin="round"/>
<path d="M44.5996 326.4V360.9" stroke="#121331" stroke-width="12" stroke-miterlimit="10" stroke-linecap="round" stroke-linejoin="round"/>
<path d="M269.901 215.9H65.8008V265.1H269.901V215.9Z" stroke="#121331" stroke-width="12" stroke-miterlimit="10" stroke-linecap="round" stroke-linejoin="round"/>
<path d="M291 326.4H44.5996L65.7996 293.9H269.9L291 326.4Z" stroke="#121331" stroke-width="12" stroke-miterlimit="10" stroke-linecap="round" stroke-linejoin="round"/>
<path d="M65.7996 293.9V265.1C54.0996 265.1 44.5996 274.6 44.5996 286.3V326.4" stroke="#121331" stroke-width="12" stroke-miterlimit="10" stroke-linecap="round" stroke-linejoin="round"/>
<path d="M269.9 293.9V265.1C281.6 265.1 291.1 274.6 291.1 286.3V326.4" stroke="#121331" stroke-width="12" stroke-miterlimit="10" stroke-linecap="round" stroke-linejoin="round"/>
<path d="M291 326.4V360.9" stroke="#121331" stroke-width="12" stroke-miterlimit="10" stroke-linecap="round" stroke-linejoin="round"/>
</svg>
